<svg width="86" height="86" xmlns="http://www.w3.org/2000/svg"><defs><linearGradient y2="-.027" x2=".86" y1="1.07" x1="-.173" id="a"><stop stop-color="#FF9000"/><stop stop-color="#916731" offset="1"/></linearGradient></defs><path fill="none" d="M-1-1h88v88H-1z"/><path fill="#8A5410" d="M1.043 86.043v-1l-1 1h1z"/><path fill="url(#a)" d="M54.043.043l-54 53.288v32.712l86-86h-32z"/><path fill="#8A5410" d="M86.043 1.043v-1l-1 1h1z"/><path fill="#fff" d="M12.31 51.834a4.56 4.56 0 0 0-1.077 1.694l-.894-.303c.246-.706.697-1.383 1.352-2.032.602-.596 1.24-.987 1.915-1.172a3.362 3.362 0 0 1 2.026.063c.673.23 1.313.651 1.92 1.265 1.035 1.043 1.577 2.095 1.627 3.156.05 1.061-.4 2.062-1.348 3.002-.63.624-1.24 1.071-1.83 1.342l-.614-.62c.288-.17.575-.35.86-.539.286-.19.566-.42.84-.692.752-.745 1.122-1.507 1.109-2.286-.016-.782-.386-1.561-1.112-2.338l-2.993 2.965-.627-.632 2.985-2.957c-.69-.575-1.402-.855-2.134-.839-.73.013-1.398.32-2.006.923zm7.787-5.777l.757-.75.213 4.152 4.47.249-.808.8-4.37-.248 2.289 2.31-.691.684-4.52-4.562.69-.684 2.199 2.218-.23-4.169zm8.194 1.086c-.66.655-1.373.96-2.138.914-.765-.05-1.516-.447-2.253-1.19-.756-.764-1.157-1.535-1.203-2.314-.043-.782.275-1.51.955-2.183a4.38 4.38 0 0 1 .728-.581c.266-.17.493-.285.68-.345l.37.797c-.213.09-.43.205-.648.345a3.042 3.042 0 0 0-.54.412c-.927.918-.805 1.968.366 3.15.555.561 1.094.88 1.616.957.524.074 1.008-.109 1.452-.549.38-.376.69-.844.927-1.404l.606.612c-.149.46-.455.92-.918 1.38zm.297-9.499l.757-.75.213 4.152 4.47.249-.808.8-4.37-.248 2.289 2.31-.691.685-4.52-4.562.69-.685 2.199 2.219-.23-4.17zm9.69-.56l-.7.693-3.934-3.97-1.37 1.356c.904 1.062 1.577 1.95 2.018 2.661.442.712.689 1.308.742 1.79.056.477-.08.879-.408 1.203a1.47 1.47 0 0 1-.407.305l-.507-.512c.077-.044.155-.104.233-.181.319-.317.238-.905-.241-1.767-.48-.86-1.35-2.026-2.615-3.496l2.668-2.644 4.52 4.562zm5.078-9.56c.74.747 1.136 1.506 1.19 2.277.058.768-.224 1.46-.846 2.076-.591.585-1.243.865-1.955.84-.716-.028-1.432-.366-2.15-1.013L38.4 32.888l2.038 2.056-.691.685-4.52-4.562.69-.685 1.894 1.91 1.203-1.191c-.572-.688-.854-1.378-.849-2.072.004-.696.293-1.328.867-1.897.61-.605 1.304-.871 2.08-.799.775.067 1.523.465 2.244 1.192zm-3.272 3.242c.58.586 1.123.93 1.628 1.035.502.102.976-.069 1.423-.511.439-.435.615-.9.529-1.398-.086-.503-.428-1.056-1.024-1.658-.578-.583-1.116-.924-1.616-1.023-.5-.099-.972.073-1.419.516-.447.442-.623.914-.529 1.414.095.5.43 1.042 1.008 1.625zm4.973-5.686c.863-.855 1.059-1.521.586-1.999-.446-.45-1.018-.328-1.717.365a3.788 3.788 0 0 0-.525.636 6.27 6.27 0 0 0-.456.913l-.803-.318a5.265 5.265 0 0 1 1.231-1.847c.525-.52 1.045-.82 1.562-.904.515-.086.956.057 1.324.429.506.51.553 1.127.14 1.848l.034.034c.451-.244.852-.35 1.203-.318.348.03.663.187.946.473.418.421.573.92.466 1.493-.108.569-.461 1.15-1.06 1.744-.658.652-1.264 1.056-1.817 1.214l-.627-.633a5.054 5.054 0 0 0 1.895-1.168c.4-.396.633-.762.701-1.099.068-.342-.026-.642-.282-.9-.525-.53-1.219-.368-2.082.487l-.632.627-.582-.587.495-.49zm2.024-5.758l2.866 2.893.722.786.222.25-1.383-6.334.861-.853 4.52 4.562-.645.639-2.763-2.789-.532-.562-.515-.561 1.38 6.32-.862.854-4.52-4.562.65-.643zm9.588-7.231c.294.297.432.608.414.934-.018.32-.155.66-.41 1.017l.037.038c.44-.333.836-.5 1.187-.5.353-.004.683.148.988.456.42.424.588.907.503 1.448-.083.538-.424 1.104-1.023 1.698l-2.01 1.992-4.52-4.562 2.002-1.983c1.132-1.122 2.076-1.301 2.832-.538zm1.48 2.584c-.245-.247-.517-.333-.815-.257-.3.07-.665.32-1.098.749l-1.253 1.241 1.49 1.503 1.269-1.258c.796-.789.932-1.448.407-1.978zm-2.088-1.85c-.22-.222-.462-.293-.724-.214-.263.073-.568.281-.915.625l-1.303 1.29 1.275 1.287 1.17-1.159c.427-.423.676-.774.746-1.053.07-.278-.013-.537-.25-.776z"/></svg>