<svg width="88" height="88" xmlns="http://www.w3.org/2000/svg"><path fill="none" d="M-1-1h90v90H-1z"/><path fill="#8A5410" d="M1.185 88.185v-1.5l-1.065 1.5h1.065zm87-87V.12l-1.5 1.065h1.5z"/><path fill="#C69A60" d="M60.07.12L-.127 60.317v27.868L87.938.12H60.07z"/><path fill="#fff" d="M11.481 57.155l1.426-1.426c.67-.67 1.255-1.055 1.754-1.154.5-.099.966.068 1.399.501.299.3.462.63.49.994.028.36-.09.728-.352 1.105l.034.035c.898-.635 1.684-.616 2.358.059.452.45.65.956.598 1.515-.05.557-.35 1.11-.898 1.658l-1.76 1.76-5.049-5.047zm2.749 1.574l.967-.967c.414-.414.647-.777.7-1.087.051-.313-.078-.624-.386-.933-.283-.283-.588-.385-.915-.307-.33.076-.715.335-1.157.777l-.863.863 1.654 1.654zm.497.497l1.889 1.889 1.053-1.053c.407-.408.635-.792.683-1.153.049-.366-.095-.717-.431-1.054-.313-.313-.65-.437-1.009-.372-.356.062-.75.308-1.18.739l-1.005 1.004zm4.654-4.316l1.032-1.032c.482-.481.927-.747 1.337-.798.41-.055.791.095 1.146.45.38.379.544.79.494 1.232-.05.437-.314.894-.79 1.37l-1.572 1.572-3.784-3.785.573-.573 1.564 1.564zm5.877-1.436l-.574.573-3.784-3.784.573-.573 3.785 3.784zm-5.383 1.93l1.246 1.247.97-.97c.608-.608.7-1.125.273-1.551-.212-.212-.436-.296-.673-.252-.237.044-.525.235-.863.573l-.953.953zm11.26-7.806l-.581.58-3.294-3.294-1.136 1.136c.757.881 1.321 1.618 1.692 2.21.37.591.579 1.087.625 1.487.048.399-.063.734-.335 1.005-.124.124-.237.21-.338.256l-.425-.425a.926.926 0 0 0 .193-.152c.265-.265.196-.755-.207-1.47-.403-.717-1.133-1.685-2.192-2.904l2.213-2.214 3.784 3.785zm-2.028-5.542l2.4 2.4.604.652.187.207-1.178-5.272.715-.715 3.784 3.784-.535.536-2.313-2.314-.446-.466-.431-.466 1.174 5.262-.715.715-3.784-3.784.538-.539zm12.323-2.137l-.556.556-1.309-1.309-2.644 2.645 1.308 1.308-.552.553-1.802-1.802.296-.297c-.11-.728-.36-1.46-.749-2.2a8.95 8.95 0 0 0-1.543-2.089l1.916-1.916 3.29 3.29.543-.542 1.802 1.803zm-2.897-.708l-2.838-2.838-.85.85c.482.54.9 1.157 1.257 1.85.357.688.578 1.323.663 1.906l1.768-1.768zm-.898-5.683l2.4 2.4.604.652.187.207-1.178-5.272.715-.715 3.784 3.784-.535.536-2.313-2.314-.446-.466-.431-.466 1.174 5.262-.715.715-3.784-3.785.538-.538zm9.557-1.85a2.36 2.36 0 0 1-.81.541c-.296.11-.606.14-.933.09l-.042.042c.249.193.472.389.67.586l1.557 1.558-.573.573-5.483-5.483.466-.466.598.438.027-.027a1.882 1.882 0 0 1 .066-.964 2.21 2.21 0 0 1 .535-.81c.502-.503 1.06-.718 1.675-.647.617.07 1.235.414 1.854 1.033.621.621.965 1.244 1.032 1.868.067.619-.146 1.175-.639 1.667zm-3.518-3.353c-.387.386-.56.773-.518 1.16.042.387.294.816.756 1.288l.128.127c.532.532 1.001.824 1.409.877.405.051.803-.12 1.194-.51a1.25 1.25 0 0 0 .37-1.164c-.078-.451-.35-.91-.815-1.374-.472-.472-.926-.74-1.364-.805-.437-.069-.824.065-1.16.4zm1.64-2.476l.615-.614 2.986 1.329c.675.31 1.143.553 1.406.728l.027-.027c-.087-.148-.225-.41-.414-.787-.189-.383-.75-1.57-1.685-3.564l.614-.614 2.683 5.935c.265.587.378 1.077.339 1.47-.035.394-.209.748-.522 1.06a3.267 3.267 0 0 1-.576.46l-.46-.46c.155-.098.31-.226.467-.382.393-.394.453-.896.18-1.506l-.329-.749-5.33-2.279zm9.616-1.91c-.56.56-1.172.832-1.837.816-.663-.019-1.297-.33-1.902-.936-.61-.61-.945-1.244-1.005-1.902-.058-.661.167-1.245.673-1.75.474-.475 1.006-.694 1.595-.657.587.035 1.136.307 1.647.818l.363.363-2.607 2.607c.456.432.905.658 1.347.676.444.016.86-.169 1.246-.556a4.31 4.31 0 0 0 .953-1.463l.511.51a4.16 4.16 0 0 1-.39.764 4.4 4.4 0 0 1-.594.71zm-3.598-3.286c-.304.304-.448.646-.431 1.025.018.378.186.758.504 1.14l1.978-1.979c-.361-.361-.718-.557-1.07-.587-.355-.032-.682.102-.98.4zm5.159-5l-1.23 1.23 3.294 3.293-.573.574-3.294-3.294-1.215 1.215-.49-.49L56 15.163l.49.49zm5.71 1.015c-.559.56-1.171.831-1.836.815-.663-.018-1.298-.33-1.903-.935-.61-.61-.945-1.244-1.005-1.903-.057-.66.167-1.244.674-1.75.474-.474 1.006-.693 1.595-.656.587.034 1.136.307 1.647.818l.362.363-2.607 2.606c.456.433.905.659 1.347.677.444.016.86-.17 1.246-.556.408-.407.725-.895.953-1.464l.511.511c-.115.29-.245.545-.39.763-.14.219-.338.456-.594.711zm-3.597-3.286c-.304.303-.448.645-.432 1.025.019.377.187.757.504 1.14l1.979-1.979c-.362-.361-.719-.557-1.07-.587-.355-.032-.682.101-.981.4z"/></svg>