<svg width="464" height="368" fill="none" xmlns="http://www.w3.org/2000/svg"><path d="M128.285 186.841L0 225.084l23.503 78.839 128.285-38.244-23.503-78.838z" fill="url(#paint0_linear)"/><path d="M126.093 189.624L2.156 226.571l21.935 73.578 123.936-36.947-21.934-73.578z" fill="#fff"/><path opacity=".6" d="M12.709 242.218l15.766-4.7-3.478-11.669L9.23 230.55l3.479 11.668zm19.7 18.846l60.548-18.051-1.127-3.782-60.549 18.05 1.128 3.783zm18.844 3.305l44.15-13.161-.753-2.524-44.15 13.162.753 2.523z" fill="#F55F44"/><path d="M328.192 0l-15.725 80.75 131.395 25.589 15.726-80.75L328.192 0z" fill="url(#paint1_linear)"/><path d="M329.411 2.326L314.735 77.69l126.942 24.72 14.676-75.362-126.942-24.72z" fill="#fff"/><path opacity=".6" d="M331.456 21.082l16.149 3.145 2.327-11.951-16.149-3.145-2.327 11.951zm8.717 25.839L402.19 59l.754-3.875-62.016-12.077-.755 3.874zm15.163 11.672l45.221 8.806.503-2.584-45.22-8.806-.504 2.584z" fill="#F55F44"/><path d="M409.904 159.438l-75.473 32.738 53.271 122.808 75.473-32.739-53.271-122.807z" fill="url(#paint2_linear)"/><path d="M408.672 161.758l-70.437 30.554 51.466 118.645 70.436-30.553-51.465-118.646z" fill="#fff"/><path opacity=".6" d="M394.353 174.081l6.547 15.093 11.17-4.845-6.547-15.094-11.17 4.846zm-16.37 21.805l25.143 57.964 3.621-1.571-25.143-57.964-3.621 1.571zm-1.038 19.101l18.334 42.264 2.415-1.047-18.333-42.265-2.416 1.048z" fill="#47E6B1"/><path d="M161.898.575L35.736 45.325l27.502 77.535L189.4 78.11 161.898.574z" fill="url(#paint3_linear)"/><path d="M159.855 3.476L37.969 46.709l25.667 72.361 121.886-43.234-25.667-72.36z" fill="#fff"/><path opacity=".6" d="M49.268 61.826l15.506-5.5-4.07-11.476-15.506 5.5 4.07 11.476zm20.637 17.823l59.547-21.122-1.319-3.72L68.586 75.93l1.32 3.72zm18.987 2.338l43.419-15.401-.88-2.482-43.42 15.402.88 2.481z" fill="#6E1866"/><path d="M231.755 4.897L75.901 151.618v216.051h311.702V151.618L231.755 4.897z" fill="url(#paint4_linear)"/><path d="M386.023 362.929H77.481V151.266L231.755 7.53l154.268 143.736v211.663z" fill="#fff"/><path d="M339.161 37.014H124.343v252.728h214.818V37.014z" fill="url(#paint5_linear)"/><path d="M336.448 39.12H127.056v250.622h209.392V39.121z" fill="#fff"/><path d="M77.48 151.266l154.275 105.832L77.481 362.929V151.266zm308.543 0L231.755 257.098l154.268 105.831V151.266z" fill="#F5F5F5"/><path d="M77.48 362.924l148.216-115.316a9.782 9.782 0 0 1 12.101 0l148.226 115.316H77.481z" fill="url(#paint6_linear)"/><path d="M77.48 362.924l148.216-110.278a10.139 10.139 0 0 1 12.101 0l148.226 110.278H77.481z" fill="#fff"/><path d="M202.531 87.558h-43.703v7.372h43.703v-7.372z" fill="#47E6B1"/><path d="M304.676 107.042H158.828v7.372h145.848v-7.372zm0 12.633H158.828v7.373h145.848v-7.373zm0 12.639H158.828v7.372h145.848v-7.372zm0 12.633H158.828v7.372h145.848v-7.372zm-79.507 12.638h-66.341v7.373h66.341v-7.373z" fill="#F5F5F5"/><path d="M304.676 157.585h-66.342v7.373h66.342v-7.373z" fill="#6E1866"/><defs><linearGradient id="paint0_linear" x1="87.645" y1="284.801" x2="64.142" y2="205.962" gradientUnits="userSpaceOnUse"><stop stop-color="gray" stop-opacity=".25"/><stop offset=".54" stop-color="gray" stop-opacity=".12"/><stop offset="1" stop-color="gray" stop-opacity=".1"/></linearGradient><linearGradient id="paint1_linear" x1="9988.91" y1="23433.3" x2="13946.4" y2="3111.61" gradientUnits="userSpaceOnUse"><stop stop-color="gray" stop-opacity=".25"/><stop offset=".54" stop-color="gray" stop-opacity=".12"/><stop offset="1" stop-color="gray" stop-opacity=".1"/></linearGradient><linearGradient id="paint2_linear" x1="-47820.7" y1="42611.3" x2="-28827.3" y2="34372.4" gradientUnits="userSpaceOnUse"><stop stop-color="gray" stop-opacity=".25"/><stop offset=".54" stop-color="gray" stop-opacity=".12"/><stop offset="1" stop-color="gray" stop-opacity=".1"/></linearGradient><linearGradient id="paint3_linear" x1="-1333.52" y1="20313.7" x2="-5586.98" y2="8322.22" gradientUnits="userSpaceOnUse"><stop stop-color="gray" stop-opacity=".25"/><stop offset=".54" stop-color="gray" stop-opacity=".12"/><stop offset="1" stop-color="gray" stop-opacity=".1"/></linearGradient><linearGradient id="paint4_linear" x1="135872" y1="250757" x2="135872" y2="3346.02" gradientUnits="userSpaceOnUse"><stop stop-color="gray" stop-opacity=".25"/><stop offset=".54" stop-color="gray" stop-opacity=".12"/><stop offset="1" stop-color="gray" stop-opacity=".1"/></linearGradient><linearGradient id="paint5_linear" x1="93711.7" y1="137700" x2="93711.7" y2="17624.3" gradientUnits="userSpaceOnUse"><stop stop-color="gray" stop-opacity=".25"/><stop offset=".54" stop-color="gray" stop-opacity=".12"/><stop offset="1" stop-color="gray" stop-opacity=".1"/></linearGradient><linearGradient id="paint6_linear" x1="185295" y1="92612" x2="185295" y2="66695.8" gradientUnits="userSpaceOnUse"><stop stop-color="gray" stop-opacity=".25"/><stop offset=".54" stop-color="gray" stop-opacity=".12"/><stop offset="1" stop-color="gray" stop-opacity=".1"/></linearGradient></defs></svg>