<svg width="88" height="88" xmlns="http://www.w3.org/2000/svg"><path fill="none" d="M-1-1h90v90H-1z"/><path fill="#8A5410" d="M1.046 88.008v-1.5l-1.066 1.5h1.066zm87-87V-.057l-1.5 1.065h1.5z"/><path fill="#C69A60" d="M60.177-.057L-.02 60.139v27.87L88.046-.058h-27.87z"/><path fill="#fff" d="M27.81 52.02l-.705.704-2.85-2.85-3.19 3.19 2.85 2.85-.705.705-6.057-6.057.704-.705 2.577 2.577 3.19-3.19-2.577-2.577.705-.704 6.057 6.057zm3.206-7.756c.74.74 1.133 1.505 1.177 2.295.041.788-.267 1.51-.924 2.167a2.903 2.903 0 0 1-1.367.796 2.668 2.668 0 0 1-1.55-.091c-.528-.186-1.03-.517-1.508-.995-.74-.74-1.131-1.501-1.173-2.283-.044-.784.263-1.505.92-2.162.635-.636 1.35-.929 2.146-.879.799.047 1.558.431 2.28 1.152zm-3.46 3.46c.58.58 1.138.906 1.674.977.536.072 1.03-.117 1.48-.567.45-.45.64-.942.571-1.475-.069-.539-.395-1.1-.978-1.682-.577-.578-1.132-.898-1.665-.962-.533-.069-1.028.125-1.483.58-.45.45-.643.938-.576 1.463.066.525.392 1.08.977 1.666zm7.226-9.48c.296.295.435.606.419.932-.017.32-.152.66-.406 1.02l.037.037c.44-.335.834-.503 1.185-.506.353-.005.684.145.99.452.423.422.593.904.51 1.446-.08.538-.419 1.106-1.015 1.703l-2.002 2-4.54-4.54 1.992-1.993c1.127-1.127 2.07-1.31 2.83-.551zm1.492 2.577c-.246-.246-.518-.33-.816-.253-.299.072-.663.323-1.094.754l-1.247 1.247 1.495 1.496 1.264-1.264c.793-.792.925-1.452.398-1.98zm-2.097-1.84c-.22-.22-.462-.291-.725-.21-.262.074-.566.284-.911.629l-1.297 1.297 1.28 1.28 1.164-1.164c.426-.426.673-.778.742-1.057.07-.279-.015-.537-.253-.775zm1.26-3.67l2.88 2.88.724.782.224.249-1.413-6.327.858-.858 4.541 4.541-.642.643-2.776-2.776-.535-.56-.518-.559 1.41 6.314-.859.858-4.54-4.541.646-.646zm5.42-5.42l1.9 1.902 2.545-2.544-1.902-1.902.688-.687 4.54 4.54-.687.688-2.047-2.046-2.544 2.543 2.047 2.047-.688.688-4.54-4.541.687-.688zm7.337-7.337l.754-.754.232 4.151 4.47.228-.803.804-4.371-.228 2.299 2.3-.688.687-4.54-4.54.687-.689 2.208 2.209-.248-4.168zm9.094-.013l-.783-.51-.033.034c.058.51.025.93-.1 1.26-.124.322-.354.653-.691.99-.45.45-.92.687-1.41.712-.485.022-.942-.18-1.37-.609-.918-.917-.665-2.13.758-3.642l.745-.795-.281-.282c-.357-.356-.696-.541-1.02-.555-.323-.02-.653.14-.99.476-.378.379-.69.923-.936 1.633l-.738-.315c.103-.345.252-.685.448-1.02a4.54 4.54 0 0 1 .7-.907c.541-.541 1.062-.821 1.562-.84.503-.023 1.02.231 1.55.762l3.099 3.099-.51.51zm-2.038 1.07c.428-.429.646-.882.654-1.36.011-.48-.194-.932-.617-1.355l-.41-.41-.659.717c-.528.566-.837 1.047-.928 1.442-.091.39.022.743.34 1.06.248.25.512.364.791.344.282-.022.558-.168.829-.439z"/></svg>