<svg width="86" height="86" xmlns="http://www.w3.org/2000/svg">
 <defs>
  <linearGradient y2="-0.027029" x2="0.860002" y1="1.069733" x1="-0.173367" id="paint0_linear">
   <stop stop-color="#FF9000"/>
   <stop stop-color="#916731" offset="1"/>
  </linearGradient>
 </defs>
 <g>
  <title>background</title>
  <rect fill="none" id="canvas_background" height="88" width="88" y="-1" x="-1"/>
 </g>
 <g>
  <title>Layer 1</title>
  <path id="svg_1" fill="#8A5410" d="m1.04348,86.043427l0,-1l-0.999997,1l0.999997,0z"/>
  <path id="svg_2" fill="url(#paint0_linear)" d="m54.043427,0.043484l-54.000042,53.287144l0,32.712799l86.000042,-85.999943l-32,0z"/>
  <path id="svg_3" fill="#8A5410" d="m86.043427,1.04348l0,-0.999997l-1,0.999997l1,0z"/>
  <path id="svg_4" fill="white" d="m12.309443,51.83403c-0.477298,0.472893 -0.836296,1.037399 -1.076896,1.693695l-0.893495,-0.302399c0.246397,-0.706001 0.696995,-1.3834 1.351792,-2.032204c0.602198,-0.596596 1.240695,-0.987297 1.915493,-1.171997c0.677595,-0.187401 1.352893,-0.166298 2.025789,0.063301c0.672899,0.229599 1.313097,0.651001 1.920698,1.264297c1.033802,1.043404 1.575802,2.095505 1.626102,3.156403c0.050297,1.060898 -0.399002,2.061501 -1.348003,3.001701c-0.629898,0.6241 -1.2397,1.071495 -1.8293,1.3423l-0.614495,-0.620201c0.2881,-0.169998 0.574797,-0.349503 0.860196,-0.538803c0.2854,-0.189301 0.565399,-0.419998 0.840099,-0.6922c0.752003,-0.744995 1.121601,-1.507095 1.108601,-2.286095c-0.015697,-0.7817 -0.386398,-1.561005 -1.112,-2.337807l-2.992692,2.965202l-0.626897,-0.632698l2.984488,-2.956902c-0.690695,-0.574997 -1.401992,-0.8545 -2.13409,-0.838501c-0.729197,0.0131 -1.397695,0.320801 -2.005391,0.922905zm7.787084,-5.776905l0.7575,-0.7505l0.212799,4.152504l4.469402,0.248596l-0.807503,0.800102l-4.369999,-0.248199l2.288799,2.310097l-0.690998,0.684601l-4.519802,-4.561996l0.691002,-0.684502l2.197998,2.218498l-0.229198,-4.169201zm8.194401,1.0863c-0.6604,0.654305 -1.3731,0.959 -2.138,0.914001c-0.7649,-0.050499 -1.515701,-0.447601 -2.252502,-1.191299c-0.7561,-0.7631 -1.1572,-1.534199 -1.203297,-2.313301c-0.043301,-0.781898 0.274899,-1.509701 0.9548,-2.183201c0.2192,-0.217197 0.4618,-0.410797 0.727798,-0.580898c0.2659,-0.170002 0.493,-0.284901 0.681099,-0.344799l0.369202,0.797199c-0.2132,0.090099 -0.4291,0.2052 -0.647999,0.345001c-0.221603,0.137096 -0.401802,0.274399 -0.540501,0.411797c-0.9268,0.918301 -0.804703,1.968502 0.366501,3.1506c0.555397,0.560501 1.093899,0.879303 1.615597,0.956303c0.524502,0.074196 1.008701,-0.108601 1.452702,-0.5485c0.380199,-0.376602 0.6889,-0.844803 0.9263,-1.4044l0.606201,0.6119c-0.148502,0.460598 -0.454502,0.920498 -0.9179,1.379597zm0.296799,-9.4991l0.757599,-0.750599l0.2127,4.152599l4.469402,0.2486l-0.807503,0.799999l-4.3699,-0.2481l2.2887,2.310101l-0.690899,0.684601l-4.519798,-4.562l0.690899,-0.684601l2.198101,2.218601l-0.229301,-4.169201zm9.689499,-0.559998l-0.699299,0.692799l-3.9342,-3.970901l-1.3694,1.3568c0.903801,1.062103 1.576401,1.9491 2.017799,2.661102c0.441402,0.711899 0.688702,1.3083 0.741699,1.789101c0.055801,0.4781 -0.080097,0.879398 -0.407497,1.2038c-0.149902,0.148499 -0.285702,0.250099 -0.407501,0.304699l-0.507198,-0.511902c0.077499,-0.0439 0.155197,-0.104298 0.232899,-0.181297c0.319099,-0.316101 0.238899,-0.9048 -0.240501,-1.766102c-0.479298,-0.861298 -1.350899,-2.026798 -2.6147,-3.496601l2.668102,-2.643398l4.519798,4.561901zm5.0784,-9.559803c0.739601,0.746502 1.1366,1.505203 1.191002,2.2761c0.057198,0.768101 -0.225002,1.460102 -0.8466,2.076c-0.591,0.585602 -1.242802,0.8657 -1.955299,0.840302c-0.715302,-0.028198 -1.4319,-0.365799 -2.149803,-1.012699l-1.194599,1.183598l2.037201,2.056202l-0.691002,0.684601l-4.519798,-4.562l0.690998,-0.684601l1.892902,1.910599l1.2029,-1.191898c-0.5714,-0.687599 -0.854,-1.378101 -0.848099,-2.0714c0.0033,-0.695999 0.292099,-1.328602 0.866497,-1.897701c0.6105,-0.604801 1.3036,-0.870899 2.079502,-0.798298c0.775799,0.067097 1.523899,0.464199 2.244198,1.191196zm-3.271599,3.241501c0.580101,0.585503 1.122601,0.9305 1.627602,1.035c0.5023,0.101803 0.976799,-0.0686 1.4235,-0.511299c0.438499,-0.434299 0.6147,-0.900299 0.528599,-1.3979c-0.086102,-0.503101 -0.427399,-1.055801 -1.024002,-1.657902c-0.577396,-0.582798 -1.115799,-0.923599 -1.615299,-1.022598c-0.4995,-0.098999 -0.972599,0.0728 -1.419399,0.5154c-0.446701,0.442699 -0.622898,0.9142 -0.528599,1.4146c0.094398,0.500401 0.430199,1.041901 1.007599,1.624699zm4.9734,-5.686398c0.862999,-0.855003 1.058102,-1.521103 0.585201,-1.998402c-0.4454,-0.4496 -1.0177,-0.3279 -1.717003,0.364899c-0.213699,0.2117 -0.388699,0.423603 -0.524998,0.635601c-0.136299,0.212101 -0.2883,0.516602 -0.455902,0.913601l-0.802299,-0.3186c0.262802,-0.678299 0.6731,-1.2938 1.2309,-1.846401c0.524403,-0.5196 1.045101,-0.820999 1.562,-0.904198c0.514202,-0.086002 0.955502,0.0569 1.323902,0.428699c0.505798,0.510597 0.5527,1.126801 0.140499,1.848598l0.033001,0.033298c0.451397,-0.243797 0.852398,-0.349598 1.202999,-0.317596c0.3479,0.029198 0.663498,0.186699 0.946701,0.4725c0.4179,0.421799 0.572998,0.919697 0.465401,1.493797c-0.107605,0.568501 -0.461105,1.1497 -1.060501,1.7435c-0.6577,0.6516 -1.2631,1.056202 -1.8162,1.213802l-0.6269,-0.632603c0.744297,-0.2645 1.375797,-0.653797 1.894798,-1.1679c0.399498,-0.395897 0.633301,-0.762199 0.701103,-1.0989c0.067894,-0.342197 -0.026001,-0.6423 -0.2817,-0.900398c-0.525101,-0.529999 -1.219204,-0.3675 -2.082203,0.487499l-0.632599,0.6269l-0.581501,-0.586899l0.4953,-0.490799zm2.023804,-5.758003l2.866096,2.892902l0.721397,0.7864l0.222603,0.249599l-1.383499,-6.333099l0.861595,-0.853699l4.519905,4.561996l-0.645203,0.639202l-2.763,-2.788799l-0.531898,-0.561802l-0.515297,-0.561699l1.379395,6.320702l-0.861595,0.8536l-4.519901,-4.561901l0.649403,-0.643402zm9.587799,-7.230982c0.294197,0.296901 0.432297,0.608299 0.4142,0.934097c-0.018105,0.320298 -0.154999,0.659396 -0.410805,1.017296l0.037102,0.037499c0.440804,-0.332199 0.836502,-0.498797 1.187302,-0.499997c0.3536,-0.003799 0.682999,0.148198 0.988098,0.456198c0.4207,0.424599 0.588303,0.907395 0.502899,1.448394c-0.082596,0.538198 -0.423599,1.104196 -1.022896,1.698098l-2.010506,1.991898l-4.519798,-4.561992l2.002098,-1.983592c1.132202,-1.121696 2.076302,-1.300995 2.832306,-0.537899zm1.479599,2.58389c-0.244705,-0.2469 -0.516304,-0.3325 -0.815002,-0.256499c-0.298698,0.070399 -0.664398,0.320099 -1.097298,0.748997l-1.252899,1.241295l1.4888,1.502602l1.269501,-1.257801c0.796394,-0.788997 0.931999,-1.448597 0.406898,-1.978593zm-2.087898,-1.849293c-0.219902,-0.221999 -0.461304,-0.293498 -0.724106,-0.214599c-0.262695,0.073299 -0.567497,0.2818 -0.914398,0.625497l-1.302803,1.290794l1.274307,1.286194l1.169594,-1.158894c0.427406,-0.423298 0.676201,-0.774398 0.746605,-1.052995c0.070297,-0.278699 -0.012703,-0.537298 -0.249199,-0.775998z"/>
 </g>
</svg>