<svg width="88" height="88" xmlns="http://www.w3.org/2000/svg">

 <g>
  <title>background</title>
  <rect fill="none" id="canvas_background" height="90" width="90" y="-1" x="-1"/>
 </g>
 <g>
  <title>Layer 1</title>
  <path id="svg_1" fill="#8A5410" d="m1.185176,88.185394l0,-1.5l-1.065399,1.5l1.065399,0z"/>
  <path id="svg_2" fill="#8A5410" d="m88.185394,1.185176l0,-1.065599l-1.5,1.065599l1.5,0z"/>
  <path id="svg_3" fill="#C69A60" d="m60.069527,0.119577l-60.196863,60.196962l0,27.868855l88.06582,-88.065817l-27.868958,0z"/>
  <path id="svg_4" fill="white" d="m11.481466,57.154686l1.4259,-1.426018c0.669899,-0.669819 1.254499,-1.054222 1.754,-1.153225c0.4995,-0.098999 0.965599,0.067905 1.3983,0.50061c0.299299,0.299309 0.4627,0.630711 0.490299,0.994415c0.027601,0.359108 -0.0898,0.727413 -0.3522,1.104916l0.034599,0.0345c0.897701,-0.635311 1.683701,-0.615707 2.358101,0.058701c0.451199,0.451111 0.650299,0.956421 0.597301,1.515724c-0.050602,0.557011 -0.3498,1.109524 -0.897602,1.65733l-1.760899,1.760921l-5.0478,-5.047874zm2.748299,1.574425l0.966801,-0.966812c0.414299,-0.41431 0.6479,-0.776814 0.700899,-1.087616c0.0506,-0.313007 -0.078299,-0.623814 -0.3867,-0.93222c-0.283199,-0.2831 -0.5882,-0.385506 -0.914999,-0.307301c-0.329201,0.075996 -0.714701,0.334904 -1.156601,0.776913l-0.863199,0.86311l1.653799,1.653927zm0.4972,0.497208l1.888601,1.888634l1.053097,-1.053116c0.407402,-0.40741 0.635303,-0.791817 0.683601,-1.153225c0.048302,-0.366005 -0.095497,-0.717007 -0.431599,-1.053116c-0.313,-0.313004 -0.649101,-0.437302 -1.0082,-0.372803c-0.356701,0.062096 -0.750301,0.308399 -1.180801,0.738811l-1.0047,1.004814zm4.6542,-4.315968l1.032299,-1.03231c0.481102,-0.48111 0.926502,-0.747017 1.336201,-0.797615c0.409702,-0.055206 0.791801,0.094402 1.146301,0.448807c0.379799,0.379807 0.544399,0.790707 0.493698,1.232716c-0.050598,0.437309 -0.314098,0.894218 -0.7906,1.370728l-1.570999,1.570923l-3.7841,-3.784161l0.573101,-0.573109l1.564098,1.564022zm5.8764,-1.436317l-0.573101,0.573105l-3.7841,-3.784161l0.573101,-0.573105l3.7841,3.784161zm-5.382698,1.930031l1.246399,1.246517l0.9702,-0.970215c0.6077,-0.607716 0.698601,-1.124523 0.2728,-1.550323c-0.2118,-0.211803 -0.436199,-0.295807 -0.673302,-0.252003c-0.237099,0.043701 -0.524799,0.234795 -0.863098,0.573105l-0.952999,0.952919zm11.259197,-7.806499l-0.580097,0.580002l-3.2938,-3.2938l-1.135902,1.135899c0.757202,0.881599 1.321201,1.618099 1.691803,2.209702c0.370598,0.591599 0.578899,1.087605 0.624897,1.48811c0.048302,0.398197 -0.063297,0.733112 -0.3349,1.004715c-0.124298,0.124298 -0.237099,0.209499 -0.338398,0.255505l-0.424599,-0.424713c0.0644,-0.036797 0.128899,-0.087395 0.193298,-0.151905c0.264698,-0.264698 0.195702,-0.755009 -0.207199,-1.470814c-0.402802,-0.715897 -1.133602,-1.6838 -2.192402,-2.903698l2.2132,-2.2132l3.7841,3.784199zm-2.026699,-5.541599l2.399601,2.399601l0.604198,0.652599l0.186401,0.2071l-1.177299,-5.272202l0.714699,-0.714699l3.7841,3.7841l-0.535198,0.535202l-2.313301,-2.313301l-0.445301,-0.466099l-0.431599,-0.466103l1.173901,5.261902l-0.714699,0.714699l-3.784203,-3.784199l0.5387,-0.538601zm12.322502,-2.137199l-0.555801,0.555901l-1.308601,-1.308601l-2.644699,2.644802l1.308502,1.308498l-0.552402,0.552498l-1.802299,-1.802299l0.296902,-0.296898c-0.1105,-0.727402 -0.360203,-1.460503 -0.749203,-2.199402c-0.389,-0.738899 -0.9034,-1.4352 -1.543297,-2.088898l1.916199,-1.916203l3.290398,3.290401l0.542103,-0.542099l1.8022,1.802299zm-2.896702,-0.707802l-2.8381,-2.8381l-0.8494,0.849403c0.481102,0.540897 0.900002,1.157799 1.256802,1.850597c0.3568,0.688301 0.577698,1.323502 0.662899,1.905899l1.767799,-1.767799zm-0.897701,-5.683098l2.399601,2.399597l0.604202,0.652603l0.186398,0.207199l-1.177299,-5.272301l0.714699,-0.714699l3.784103,3.784199l-0.535202,0.535099l-2.313301,-2.313297l-0.4454,-0.466103l-0.431499,-0.466099l1.173901,5.261902l-0.714699,0.714699l-3.784203,-3.784199l0.5387,-0.538601zm9.557003,-1.850601c-0.2463,0.2463 -0.5168,0.427002 -0.811401,0.542099c-0.294701,0.1105 -0.6054,0.1404 -0.932201,0.089703l-0.0415,0.0415c0.2486,0.193298 0.471901,0.389 0.6698,0.586899l1.557201,1.557201l-0.5732,0.573097l-5.4828,-5.4828l0.466099,-0.466099l0.597301,0.438499l0.027699,-0.027699c-0.059898,-0.354401 -0.037998,-0.675503 0.065601,-0.963303c0.1035,-0.287701 0.281898,-0.558098 0.535099,-0.811298c0.501801,-0.501801 1.060001,-0.716999 1.674603,-0.645702c0.616798,0.069103 1.234898,0.4132 1.854,1.032402c0.621498,0.621399 0.965599,1.244099 1.032398,1.867901c0.0667,0.619099 -0.146198,1.174999 -0.638699,1.667599zm-3.518303,-3.352501c-0.3867,0.3867 -0.559399,0.773399 -0.517899,1.160103c0.041401,0.3867 0.293499,0.815899 0.7561,1.2878l0.1278,0.1278c0.5317,0.5317 1.001202,0.823997 1.408699,0.8769c0.405102,0.050697 0.803303,-0.119701 1.194603,-0.511002c0.326797,-0.326801 0.449997,-0.714699 0.3694,-1.163498c-0.078201,-0.451202 -0.349903,-0.909203 -0.8148,-1.374203c-0.471901,-0.471798 -0.926502,-0.739998 -1.3638,-0.804398c-0.437401,-0.069103 -0.8241,0.0644 -1.160103,0.400497zm1.640003,-2.475597l0.614597,-0.614601l2.9865,1.3293c0.674507,0.310699 1.142914,0.5536 1.405315,0.7285l0.027603,-0.027599c-0.087502,-0.147301 -0.225605,-0.409702 -0.414303,-0.787201c-0.188808,-0.382099 -0.750416,-1.569801 -1.684914,-3.563202l0.614498,-0.614498l2.682835,5.935101c0.264706,0.586899 0.37751,1.077198 0.338306,1.470798c-0.0345,0.3936 -0.208305,0.747002 -0.521309,1.060001c-0.175003,0.1749 -0.367207,0.327999 -0.576607,0.459198l-0.459206,-0.459198c0.154202,-0.098999 0.309597,-0.2267 0.466103,-0.383202c0.393608,-0.3937 0.453407,-0.895401 0.179508,-1.505398l-0.328011,-0.749203l-5.330917,-2.278797zm9.615784,-1.909302c-0.559303,0.559299 -1.171619,0.830902 -1.83683,0.8148c-0.662903,-0.018398 -1.297115,-0.330299 -1.902523,-0.935699c-0.609913,-0.609901 -0.944817,-1.244099 -1.004715,-1.902401c-0.057507,-0.660599 0.166901,-1.244099 0.673309,-1.7505c0.474205,-0.474201 1.005913,-0.692799 1.595119,-0.655998c0.587013,0.0345 1.135918,0.307297 1.646927,0.818298l0.36261,0.362499l-2.606846,2.6068c0.455811,0.432701 0.904617,0.658302 1.346527,0.676701c0.444305,0.016102 0.859806,-0.169201 1.246517,-0.555901c0.407406,-0.407398 0.72501,-0.895401 0.952911,-1.463898l0.511009,0.510998c-0.115101,0.290001 -0.245106,0.544399 -0.390205,0.763c-0.140404,0.2187 -0.338306,0.455799 -0.593811,0.7113zm-3.597752,-3.286999c-0.303806,0.303898 -0.447708,0.645699 -0.43161,1.025497c0.018406,0.377502 0.186504,0.757301 0.504105,1.1394l1.978436,-1.978397c-0.361404,-0.361401 -0.718212,-0.557102 -1.070316,-0.587002c-0.354504,-0.0322 -0.681416,0.101299 -0.980614,0.400501zm5.158375,-4.999401l-1.229214,1.229099l3.293949,3.2939l-0.573212,0.573101l-3.29385,-3.2938l-1.215321,1.215302l-0.490303,-0.490303l3.017647,-3.017597l0.490303,0.490299zm5.710789,1.014999c-0.559303,0.559402 -1.171619,0.831001 -1.836826,0.814903c-0.662914,-0.018402 -1.297115,-0.330303 -1.902428,-0.935703c-0.610008,-0.609999 -0.944916,-1.244099 -1.004814,-1.902399c-0.057503,-0.660601 0.166904,-1.244101 0.673306,-1.7505c0.474213,-0.474201 1.00592,-0.6929 1.595123,-0.656c0.587017,0.0345 1.136021,0.307301 1.64703,0.8183l0.362499,0.362499l-2.606834,2.6068c0.455811,0.432699 0.904613,0.6583 1.346622,0.676701c0.444206,0.0161 0.859711,-0.169201 1.246418,-0.555901c0.407402,-0.4074 0.72501,-0.895399 0.952911,-1.4639l0.511009,0.511c-0.115097,0.290001 -0.245106,0.5443 -0.390102,0.763c-0.140408,0.2187 -0.338409,0.4557 -0.593914,0.711199zm-3.597755,-3.2869c-0.303802,0.303801 -0.447708,0.6457 -0.431602,1.0254c0.018501,0.377501 0.186504,0.757299 0.504105,1.1394l1.978432,-1.978401c-0.361404,-0.3613 -0.718113,-0.556999 -1.070313,-0.586899c-0.354507,-0.0322 -0.681316,0.101299 -0.980621,0.400499z"/>
 </g>
</svg>