<svg width="464" height="368" viewBox="0 0 464 368" fill="none" xmlns="http://www.w3.org/2000/svg">
<path d="M128.285 186.841L0 225.084L23.5028 303.923L151.788 265.679L128.285 186.841Z" fill="url(#paint0_linear)"/>
<path d="M126.093 189.624L2.15613 226.571L24.0907 300.149L148.027 263.202L126.093 189.624Z" fill="white"/>
<g opacity="0.6">
<path opacity="0.6" d="M12.7086 242.218L28.4753 237.518L24.9969 225.849L9.23017 230.55L12.7086 242.218Z" fill="#F55F44"/>
<path opacity="0.6" d="M32.4089 261.064L92.9575 243.013L91.8299 239.231L31.2813 257.281L32.4089 261.064Z" fill="#F55F44"/>
<path opacity="0.6" d="M51.2528 264.369L95.4026 251.208L94.6504 248.684L50.5005 261.846L51.2528 264.369Z" fill="#F55F44"/>
</g>
<path d="M328.192 9.80094e-05L312.467 80.7505L443.862 106.339L459.588 25.5884L328.192 9.80094e-05Z" fill="url(#paint1_linear)"/>
<path d="M329.411 2.32632L314.735 77.6885L441.677 102.409L456.353 27.0473L329.411 2.32632Z" fill="white"/>
<g opacity="0.6">
<path opacity="0.6" d="M331.456 21.0821L347.605 24.2271L349.932 12.2758L333.783 9.13092L331.456 21.0821Z" fill="#F55F44"/>
<path opacity="0.6" d="M340.173 46.9212L402.19 58.9985L402.944 55.1244L340.928 43.0471L340.173 46.9212Z" fill="#F55F44"/>
<path opacity="0.6" d="M355.336 58.5931L400.557 67.3994L401.06 64.8149L355.84 56.0086L355.336 58.5931Z" fill="#F55F44"/>
</g>
<path d="M409.904 159.438L334.431 192.176L387.702 314.984L463.175 282.245L409.904 159.438Z" fill="url(#paint2_linear)"/>
<path d="M408.672 161.758L338.235 192.312L389.701 310.957L460.137 280.404L408.672 161.758Z" fill="white"/>
<g opacity="0.6">
<path opacity="0.6" d="M394.353 174.081L400.9 189.174L412.07 184.329L405.523 169.235L394.353 174.081Z" fill="#47E6B1"/>
<path opacity="0.6" d="M377.983 195.886L403.126 253.85L406.747 252.279L381.604 194.315L377.983 195.886Z" fill="#47E6B1"/>
<path opacity="0.6" d="M376.945 214.987L395.279 257.251L397.694 256.204L379.361 213.939L376.945 214.987Z" fill="#47E6B1"/>
</g>
<path d="M161.898 0.57492L35.7361 45.3257L63.2381 122.86L189.4 78.1091L161.898 0.57492Z" fill="url(#paint3_linear)"/>
<path d="M159.855 3.47553L37.969 46.7095L63.6359 119.07L185.522 75.8361L159.855 3.47553Z" fill="white"/>
<g opacity="0.6">
<path opacity="0.6" d="M49.268 61.8257L64.7738 56.3257L60.7035 44.8505L45.1976 50.3505L49.268 61.8257Z" fill="#6E1866"/>
<path opacity="0.6" d="M69.9052 79.6486L129.452 58.5269L128.133 54.8071L68.5858 75.9288L69.9052 79.6486Z" fill="#6E1866"/>
<path opacity="0.6" d="M88.8919 81.9871L132.311 66.5859L131.431 64.1044L88.0117 79.5056L88.8919 81.9871Z" fill="#6E1866"/>
</g>
<path d="M231.755 4.89697L75.9009 151.618V367.669H387.603V151.618L231.755 4.89697Z" fill="url(#paint4_linear)"/>
<path d="M386.023 362.929H77.4807V151.266L231.755 7.52979L386.023 151.266V362.929Z" fill="white"/>
<path d="M339.161 37.0142H124.343V289.742H339.161V37.0142Z" fill="url(#paint5_linear)"/>
<path d="M336.448 39.1206H127.056V289.742H336.448V39.1206Z" fill="white"/>
<path d="M77.4807 151.266L231.755 257.098L77.4807 362.929V151.266Z" fill="#F5F5F5"/>
<path d="M386.023 151.266L231.755 257.098L386.023 362.929V151.266Z" fill="#F5F5F5"/>
<path d="M77.4807 362.924L225.696 247.608C227.421 246.25 229.552 245.512 231.747 245.512C233.941 245.512 236.073 246.25 237.797 247.608L386.023 362.924H77.4807Z" fill="url(#paint6_linear)"/>
<path d="M77.4807 362.924L225.696 252.646C227.445 251.345 229.567 250.642 231.747 250.642C233.926 250.642 236.048 251.345 237.797 252.646L386.023 362.924H77.4807Z" fill="white"/>
<path d="M202.531 87.5576H158.828V94.9301H202.531V87.5576Z" fill="#47E6B1"/>
<path d="M304.676 107.042H158.828V114.414H304.676V107.042Z" fill="#F5F5F5"/>
<path d="M304.676 119.675H158.828V127.048H304.676V119.675Z" fill="#F5F5F5"/>
<path d="M304.676 132.314H158.828V139.686H304.676V132.314Z" fill="#F5F5F5"/>
<path d="M304.676 144.947H158.828V152.319H304.676V144.947Z" fill="#F5F5F5"/>
<path d="M225.169 157.585H158.828V164.958H225.169V157.585Z" fill="#F5F5F5"/>
<path d="M304.676 157.585H238.334V164.958H304.676V157.585Z" fill="#6E1866"/>
<defs>
<linearGradient id="paint0_linear" x1="87.6452" y1="284.801" x2="64.1424" y2="205.962" gradientUnits="userSpaceOnUse">
<stop stop-color="#808080" stop-opacity="0.25"/>
<stop offset="0.54" stop-color="#808080" stop-opacity="0.12"/>
<stop offset="1" stop-color="#808080" stop-opacity="0.1"/>
</linearGradient>
<linearGradient id="paint1_linear" x1="9988.91" y1="23433.3" x2="13946.4" y2="3111.61" gradientUnits="userSpaceOnUse">
<stop stop-color="#808080" stop-opacity="0.25"/>
<stop offset="0.54" stop-color="#808080" stop-opacity="0.12"/>
<stop offset="1" stop-color="#808080" stop-opacity="0.1"/>
</linearGradient>
<linearGradient id="paint2_linear" x1="-47820.7" y1="42611.3" x2="-28827.3" y2="34372.4" gradientUnits="userSpaceOnUse">
<stop stop-color="#808080" stop-opacity="0.25"/>
<stop offset="0.54" stop-color="#808080" stop-opacity="0.12"/>
<stop offset="1" stop-color="#808080" stop-opacity="0.1"/>
</linearGradient>
<linearGradient id="paint3_linear" x1="-1333.52" y1="20313.7" x2="-5586.98" y2="8322.22" gradientUnits="userSpaceOnUse">
<stop stop-color="#808080" stop-opacity="0.25"/>
<stop offset="0.54" stop-color="#808080" stop-opacity="0.12"/>
<stop offset="1" stop-color="#808080" stop-opacity="0.1"/>
</linearGradient>
<linearGradient id="paint4_linear" x1="135872" y1="250757" x2="135872" y2="3346.02" gradientUnits="userSpaceOnUse">
<stop stop-color="#808080" stop-opacity="0.25"/>
<stop offset="0.54" stop-color="#808080" stop-opacity="0.12"/>
<stop offset="1" stop-color="#808080" stop-opacity="0.1"/>
</linearGradient>
<linearGradient id="paint5_linear" x1="93711.7" y1="137700" x2="93711.7" y2="17624.3" gradientUnits="userSpaceOnUse">
<stop stop-color="#808080" stop-opacity="0.25"/>
<stop offset="0.54" stop-color="#808080" stop-opacity="0.12"/>
<stop offset="1" stop-color="#808080" stop-opacity="0.1"/>
</linearGradient>
<linearGradient id="paint6_linear" x1="185295" y1="92612" x2="185295" y2="66695.8" gradientUnits="userSpaceOnUse">
<stop stop-color="#808080" stop-opacity="0.25"/>
<stop offset="0.54" stop-color="#808080" stop-opacity="0.12"/>
<stop offset="1" stop-color="#808080" stop-opacity="0.1"/>
</linearGradient>
</defs>
</svg>
