<svg width="88" height="88" xmlns="http://www.w3.org/2000/svg">

 <g>
  <title>background</title>
  <rect fill="none" id="canvas_background" height="90" width="90" y="-1" x="-1"/>
 </g>
 <g>
  <title>Layer 1</title>
  <path id="svg_1" fill="#8A5410" d="m1.045753,88.008072l0,-1.5l-1.065397,1.5l1.065397,0z"/>
  <path id="svg_2" fill="#8A5410" d="m88.045761,1.008173l0,-1.065602l-1.5,1.065602l1.5,0z"/>
  <path id="svg_3" fill="#C69A60" d="m60.176865,-0.057429l-60.196708,60.196704l0,27.868797l88.065604,-88.065501l-27.868896,0z"/>
  <path id="svg_4" fill="white" d="m27.809158,52.020073l-0.7043,0.704399l-2.850494,-2.850601l-3.190308,3.1903l2.85051,2.850502l-0.7043,0.704399l-6.057409,-6.057404l0.704399,-0.704296l2.577009,2.577l3.190292,-3.190201l-2.577095,-2.577099l0.704399,-0.704399l6.057297,6.0574zm3.206902,-7.7561c0.740196,0.740299 1.1325,1.505398 1.176704,2.295399c0.041397,0.787201 -0.266602,1.509499 -0.924004,2.166901c-0.405998,0.405998 -0.861801,0.6712 -1.367195,0.795498c-0.505508,0.124302 -1.022003,0.093903 -1.549606,-0.091198c-0.527603,-0.185101 -1.030296,-0.516502 -1.508102,-0.9944c-0.740295,-0.7402 -1.131096,-1.501202 -1.172501,-2.282902c-0.044189,-0.784397 0.262405,-1.505299 0.919708,-2.162701c0.6353,-0.6353 1.350693,-0.928097 2.146194,-0.878399c0.798302,0.047001 1.557907,0.430901 2.278801,1.151802zm-3.459602,3.459599c0.580109,0.580101 1.138,0.905998 1.673904,0.977798c0.535797,0.0718 1.0289,-0.117397 1.479095,-0.567596c0.450203,-0.450203 0.640808,-0.941902 0.571808,-1.475002c-0.069107,-0.538601 -0.395004,-1.0993 -0.977798,-1.682098c-0.577301,-0.577301 -1.132507,-0.897701 -1.665604,-0.9613c-0.533104,-0.069 -1.027496,0.124298 -1.483307,0.580097c-0.450195,0.450203 -0.642197,0.937702 -0.575897,1.462502c0.066299,0.524799 0.392197,1.080002 0.977798,1.6656zm7.2258,-9.479599c0.295502,0.295498 0.435005,0.606197 0.418404,0.932198c-0.016502,0.3204 -0.151901,0.660103 -0.405998,1.019203l0.0373,0.0373c0.439201,-0.334202 0.834099,-0.502701 1.184898,-0.505501c0.3536,-0.005501 0.683701,0.145 0.990295,0.451599c0.422607,0.4226 0.592407,0.904598 0.509605,1.445999c-0.080101,0.538601 -0.418495,1.106201 -1.015099,1.7029l-2.001205,2.001102l-4.540894,-4.540901l1.992897,-1.992901c1.1269,-1.1269 2.070198,-1.3106 2.829796,-0.550999zm1.491501,2.577c-0.245796,-0.2458 -0.517899,-0.330002 -0.816193,-0.252701c-0.298309,0.0718 -0.662903,0.3232 -1.093803,0.754101l-1.247101,1.247101l1.495705,1.495697l1.263695,-1.263699c0.792702,-0.792801 0.925301,-1.4529 0.397697,-1.980499zm-2.096397,-1.8396c-0.221001,-0.220901 -0.4627,-0.291401 -0.725098,-0.2113c-0.262398,0.0746 -0.5662,0.2845 -0.911507,0.629799l-1.296799,1.296799l1.280205,1.2803l1.164299,-1.164299c0.425301,-0.425301 0.672501,-0.7775 0.7416,-1.056499c0.069,-0.2789 -0.015205,-0.537201 -0.252701,-0.774799zm1.259499,-3.670799l2.879501,2.879498l0.725098,0.7831l0.223701,0.2486l-1.412804,-6.326698l0.857605,-0.8577l4.541,4.541l-0.642197,0.6422l-2.776001,-2.776001l-0.534401,-0.559299l-0.517906,-0.559299l1.4086,6.314198l-0.85759,0.8577l-4.541,-4.541l0.646393,-0.646297zm5.419296,-5.419266l1.901703,1.901669l2.544006,-2.543859l-1.901802,-1.901773l0.687798,-0.687687l4.540901,4.540831l-0.687698,0.687786l-2.046806,-2.046766l-2.5439,2.543964l2.046707,2.0467l-0.687698,0.687801l-4.541,-4.540977l0.68779,-0.687687zm7.337601,-7.337612l0.754105,-0.754002l0.232002,4.151472l4.470497,0.227797l-0.803802,0.803789l-4.371002,-0.227798l2.299408,2.299364l-0.687706,0.687792l-4.540993,-4.540833l0.687798,-0.68779l2.208298,2.208267l-0.248604,-4.168058zm9.094307,-0.012402l-0.783005,-0.509602l-0.033195,0.0331c0.057999,0.511002 0.024895,0.930901 -0.099403,1.259602c-0.124298,0.323101 -0.354897,0.653198 -0.691895,0.990198c-0.450203,0.450191 -0.919807,0.68779 -1.408707,0.712589c-0.486099,0.022099 -0.943298,-0.180899 -1.371399,-0.608992c-0.917,-0.916996 -0.664299,-2.130997 0.758202,-3.641895l0.745804,-0.795502l-0.281807,-0.2817c-0.3563,-0.3563 -0.695999,-0.541397 -1.019196,-0.555199c-0.323204,-0.019299 -0.653198,0.1395 -0.990204,0.476501c-0.378395,0.378399 -0.690598,0.922497 -0.936394,1.632397l-0.737503,-0.314899c0.102196,-0.345299 0.251396,-0.684998 0.447502,-1.019199c0.198898,-0.336998 0.432297,-0.6395 0.700195,-0.907398c0.541405,-0.541401 1.062004,-0.821701 1.562004,-0.841103c0.502701,-0.022099 1.019196,0.232101 1.5495,0.762402l3.099197,3.099098l-0.509697,0.509602zm-2.038399,1.069c0.428101,-0.4282 0.646294,-0.881199 0.654594,-1.359001c0.011101,-0.480598 -0.194695,-0.932198 -0.617294,-1.354797l-0.410202,-0.410202l-0.658798,0.716801c-0.527504,0.5662 -0.836906,1.046799 -0.928001,1.441799c-0.091202,0.3895 0.021996,0.743 0.339699,1.060699c0.248596,0.248501 0.512398,0.363201 0.791298,0.3438c0.281799,-0.022099 0.557999,-0.1684 0.828705,-0.439098z"/>
 </g>
</svg>